<mxfile host="app.diagrams.net" modified="2020-09-07T10:42:36.264Z" agent="5.0 (Windows NT 10.0; WOW64) AppleWebKit/537.36 (KHTML, like Gecko) Chrome/80.0.3987.149 Safari/537.36" etag="o0Kx2DI4zh6yFYc0bTSc" version="13.6.6" type="github">
  <diagram id="-Oisvp_q1IwiDB2npFT_" name="第 1 页">
    <mxGraphModel dx="782" dy="493" grid="1" gridSize="10" guides="1" tooltips="1" connect="1" arrows="1" fold="1" page="1" pageScale="1" pageWidth="827" pageHeight="1169" math="0" shadow="0">
      <root>
        <mxCell id="0" />
        <mxCell id="1" parent="0" />
        <mxCell id="wA9MKPHfXX9DlRT-mGf--3" value="" style="edgeStyle=orthogonalEdgeStyle;rounded=0;sketch=1;orthogonalLoop=1;jettySize=auto;html=1;" edge="1" parent="1" source="wA9MKPHfXX9DlRT-mGf--1" target="wA9MKPHfXX9DlRT-mGf--2">
          <mxGeometry relative="1" as="geometry" />
        </mxCell>
        <mxCell id="wA9MKPHfXX9DlRT-mGf--1" value="" style="rounded=0;whiteSpace=wrap;html=1;sketch=1;" vertex="1" parent="1">
          <mxGeometry x="380" y="190" width="60" height="60" as="geometry" />
        </mxCell>
        <mxCell id="wA9MKPHfXX9DlRT-mGf--2" value="" style="whiteSpace=wrap;html=1;rounded=0;sketch=1;" vertex="1" parent="1">
          <mxGeometry x="490" y="190" width="120" height="60" as="geometry" />
        </mxCell>
        <mxCell id="wA9MKPHfXX9DlRT-mGf--4" value="" style="endArrow=classic;startArrow=classic;html=1;entryX=0.45;entryY=-0.058;entryDx=0;entryDy=0;entryPerimeter=0;" edge="1" parent="1" target="wA9MKPHfXX9DlRT-mGf--2">
          <mxGeometry width="50" height="50" relative="1" as="geometry">
            <mxPoint x="410" y="187" as="sourcePoint" />
            <mxPoint x="520" y="100" as="targetPoint" />
            <Array as="points">
              <mxPoint x="480" y="120" />
            </Array>
          </mxGeometry>
        </mxCell>
      </root>
    </mxGraphModel>
  </diagram>
</mxfile>
